<?xml version="1.0" encoding="UTF-8" standalone="no"?>
<svg
   fill="none"
   height="41"
   viewBox="0 0 179 41"
   width="179"
   version="1.1"
   id="svg3"
   sodipodi:docname="extensions_color_updated.svg"
   inkscape:version="1.3.2 (091e20e, 2023-11-25, custom)"
   xmlns:inkscape="http://www.inkscape.org/namespaces/inkscape"
   xmlns:sodipodi="http://sodipodi.sourceforge.net/DTD/sodipodi-0.dtd"
   xmlns="http://www.w3.org/2000/svg"
   xmlns:svg="http://www.w3.org/2000/svg">
  <sodipodi:namedview
     id="namedview3"
     pagecolor="#ffffff"
     bordercolor="#000000"
     borderopacity="0.25"
     inkscape:showpageshadow="2"
     inkscape:pageopacity="0.0"
     inkscape:pagecheckerboard="0"
     inkscape:deskcolor="#d1d1d1"
     inkscape:zoom="4.3575419"
     inkscape:cx="89.5"
     inkscape:cy="20.539103"
     inkscape:window-width="1366"
     inkscape:window-height="705"
     inkscape:window-x="-8"
     inkscape:window-y="-8"
     inkscape:window-maximized="1"
     inkscape:current-layer="svg3" />
  <g
     clip-path="url(#a)"
     id="g1">
    <path
       clip-rule="evenodd"
       d="M13.715.516c-2.257 0-4.42.896-6.016 2.492L0 10.707v3.524c0 2.49 1.07 4.73 2.774 6.285A8.485 8.485 0 0 0 0 26.802v3.524l7.699 7.698A8.507 8.507 0 0 0 20 37.742a8.508 8.508 0 0 0 12.301.282L40 30.326v-3.524c0-2.49-1.07-4.73-2.774-6.286A8.485 8.485 0 0 0 40 14.231v-3.524l-7.699-7.7A8.508 8.508 0 0 0 20 3.29 8.485 8.485 0 0 0 13.715.516Zm12.044 20a8.528 8.528 0 0 1-.282-.27L20 14.77l-5.477 5.477a8.528 8.528 0 0 1-.282.27c.096.087.19.177.282.269L20 26.262l5.477-5.476c.092-.093.186-.182.282-.27Zm-3.537 9.81v1.682a4.063 4.063 0 0 0 6.936 2.874l6.398-6.397v-1.683a4.063 4.063 0 0 0-6.937-2.874l-6.397 6.398Zm-4.444 0-6.397-6.398a4.063 4.063 0 0 0-6.937 2.873v1.684l6.397 6.397a4.063 4.063 0 0 0 6.937-2.873v-1.683Zm0-21.302v1.683l-6.397 6.397a4.063 4.063 0 0 1-6.937-2.873v-1.683l6.397-6.397a4.063 4.063 0 0 1 6.937 2.873Zm10.841 8.08-6.397-6.397V9.024a4.063 4.063 0 0 1 6.936-2.873l6.398 6.397v1.683a4.063 4.063 0 0 1-6.937 2.873Z"
       fill="#C7231A"
       fill-rule="evenodd"
       id="path1" />
  </g>
  <path
     d="M54.318 29V12.2h11.484v3.096H57.87v3.6h6.72v2.868h-6.72v4.104h8.028V29h-11.58Zm12.818.024 4.368-6.036-4.14-6.108h4.428l2.148 3.684 2.088-3.684h4.32l-4.02 6.036L80.66 29h-4.488l-2.352-3.696-2.388 3.66-4.296.06Zm20.293.336c-1.296 0-2.32-.364-3.072-1.092-.744-.736-1.116-1.844-1.116-3.324V13.388h3.504v3.492h3.012v2.808h-3.012v4.62c0 .712.148 1.212.444 1.5.296.288.692.432 1.188.432.256 0 .504-.028.744-.084.248-.064.476-.152.684-.264l.492 2.76c-.36.2-.792.368-1.296.504a5.92 5.92 0 0 1-1.572.204Zm-6.648-9.672V16.88h2.808v2.808H80.78Zm17.126 9.672c-1.32 0-2.48-.268-3.48-.804a5.853 5.853 0 0 1-2.34-2.244c-.56-.96-.84-2.084-.84-3.372 0-.936.16-1.796.48-2.58a6.052 6.052 0 0 1 1.368-2.028A6.203 6.203 0 0 1 95.171 17c.8-.32 1.676-.48 2.628-.48 1.048 0 1.976.184 2.784.552a5.43 5.43 0 0 1 2.028 1.548c.536.656.908 1.428 1.116 2.316.216.888.236 1.852.06 2.892h-9.288c0 .56.144 1.048.432 1.464.296.416.708.744 1.236.984.536.232 1.16.348 1.872.348.704 0 1.376-.096 2.016-.288a6.426 6.426 0 0 0 1.812-.876l1.164 2.4c-.384.296-.864.56-1.44.792-.576.224-1.188.396-1.836.516a9.422 9.422 0 0 1-1.848.192Zm-3.204-7.944h5.724c-.024-.712-.276-1.276-.756-1.692-.472-.416-1.124-.624-1.956-.624-.832 0-1.524.208-2.076.624-.544.416-.856.98-.936 1.692ZM105.83 29V16.88h3.504v1.368c.464-.608 1.012-1.048 1.644-1.32a5.072 5.072 0 0 1 2.004-.408c1.128 0 2.056.224 2.784.672.736.44 1.28 1.012 1.632 1.716.36.704.54 1.444.54 2.22V29h-3.504v-6.78c0-.768-.216-1.38-.648-1.836-.424-.456-1.04-.684-1.848-.684-.512 0-.964.116-1.356.348-.392.224-.7.54-.924.948-.216.408-.324.88-.324 1.416V29h-3.504Zm19.29.348c-1.08 0-2.076-.14-2.988-.42-.912-.288-1.692-.68-2.34-1.176l1.14-2.448a8.333 8.333 0 0 0 2.052 1.02c.736.24 1.444.36 2.124.36.672 0 1.188-.1 1.548-.3.368-.208.552-.504.552-.888 0-.344-.164-.596-.492-.756-.32-.168-.944-.348-1.872-.54-1.6-.288-2.768-.74-3.504-1.356-.736-.624-1.104-1.48-1.104-2.568 0-.768.212-1.444.636-2.028.432-.584 1.024-1.036 1.776-1.356.752-.328 1.616-.492 2.592-.492.96 0 1.864.132 2.712.396.856.256 1.588.616 2.196 1.08l-1.104 2.46a5.34 5.34 0 0 0-1.104-.672 6.35 6.35 0 0 0-1.296-.444 5.43 5.43 0 0 0-1.32-.168c-.584 0-1.056.1-1.416.3-.36.192-.54.464-.54.816 0 .352.164.612.492.78.328.168.94.352 1.836.552 1.672.352 2.86.82 3.564 1.404.712.576 1.068 1.388 1.068 2.436 0 .808-.22 1.512-.66 2.112-.432.6-1.04 1.068-1.824 1.404-.776.328-1.684.492-2.724.492Zm7.413-.348V16.88h3.504V29h-3.504Zm1.752-14.04a2.26 2.26 0 0 1-1.512-.54c-.424-.368-.636-.856-.636-1.464 0-.616.212-1.104.636-1.464a2.23 2.23 0 0 1 1.512-.552 2.23 2.23 0 0 1 1.512.552c.424.36.636.848.636 1.464 0 .608-.212 1.096-.636 1.464a2.26 2.26 0 0 1-1.512.54Zm10.362 14.4c-1.304 0-2.46-.292-3.468-.876a6.504 6.504 0 0 1-2.376-2.328 6.28 6.28 0 0 1-.852-3.216c0-.856.164-1.668.492-2.436a6.302 6.302 0 0 1 1.392-2.052c.6-.6 1.308-1.072 2.124-1.416.816-.344 1.712-.516 2.688-.516 1.304 0 2.456.292 3.456.876a6.38 6.38 0 0 1 2.364 2.34c.576.968.864 2.036.864 3.204 0 .848-.164 1.66-.492 2.436a6.439 6.439 0 0 1-1.392 2.064 6.547 6.547 0 0 1-2.112 1.404c-.816.344-1.712.516-2.688.516Zm0-3.036c.616 0 1.168-.136 1.656-.408.488-.28.872-.672 1.152-1.176.28-.512.42-1.112.42-1.8 0-.696-.14-1.296-.42-1.8a2.854 2.854 0 0 0-1.14-1.164c-.488-.28-1.044-.42-1.668-.42-.624 0-1.184.14-1.68.42-.488.272-.872.66-1.152 1.164-.272.504-.408 1.104-.408 1.8s.14 1.296.42 1.8c.28.504.664.896 1.152 1.176.488.272 1.044.408 1.668.408ZM153.235 29V16.88h3.504v1.368c.464-.608 1.012-1.048 1.644-1.32a5.072 5.072 0 0 1 2.004-.408c1.128 0 2.056.224 2.784.672.736.44 1.28 1.012 1.632 1.716.36.704.54 1.444.54 2.22V29h-3.504v-6.78c0-.768-.216-1.38-.648-1.836-.424-.456-1.04-.684-1.848-.684-.512 0-.964.116-1.356.348-.392.224-.7.54-.924.948-.216.408-.324.88-.324 1.416V29h-3.504Zm19.291.348c-1.08 0-2.076-.14-2.988-.42-.912-.288-1.692-.68-2.34-1.176l1.14-2.448a8.333 8.333 0 0 0 2.052 1.02c.736.24 1.444.36 2.124.36.672 0 1.188-.1 1.548-.3.368-.208.552-.504.552-.888 0-.344-.164-.596-.492-.756-.32-.168-.944-.348-1.872-.54-1.6-.288-2.768-.74-3.504-1.356-.736-.624-1.104-1.48-1.104-2.568 0-.768.212-1.444.636-2.028.432-.584 1.024-1.036 1.776-1.356.752-.328 1.616-.492 2.592-.492.96 0 1.864.132 2.712.396.856.256 1.588.616 2.196 1.08l-1.104 2.46a5.34 5.34 0 0 0-1.104-.672 6.35 6.35 0 0 0-1.296-.444 5.43 5.43 0 0 0-1.32-.168c-.584 0-1.056.1-1.416.3-.36.192-.54.464-.54.816 0 .352.164.612.492.78.328.168.94.352 1.836.552 1.672.352 2.86.82 3.564 1.404.712.576 1.068 1.388 1.068 2.436 0 .808-.22 1.512-.66 2.112-.432.6-1.04 1.068-1.824 1.404-.776.328-1.684.492-2.724.492Z"
     fill="#091540"
     id="path2" />
  <defs
     id="defs3">
    <clipPath
       id="a">
      <path
         d="M0 0h40v41H0z"
         fill="#fff"
         id="path3" />
    </clipPath>
  </defs>
  <path
     style="fill:#fbfdfe;stroke:#e6e6e6;stroke-width:0.229487;fill-opacity:1"
     d="M 85.128717,28.627746 C 83.654371,27.634185 83.427864,26.922061 83.340622,23.00609 l -0.07797,-3.49968 H 82.02107 80.779487 v -1.262179 -1.26218 h 1.26218 1.262179 V 15.260897 13.539744 H 85.025 86.746154 v 1.721153 1.721154 h 1.491667 1.491666 v 1.26218 1.262179 h -1.491666 -1.491667 v 2.983334 c 0,2.733435 0.04074,3.024077 0.486407,3.46974 0.399914,0.399914 0.662041,0.462334 1.474108,0.351028 l 0.987701,-0.13538 0.247046,1.151935 c 0.135875,0.633564 0.247046,1.188384 0.247046,1.232933 0,0.250458 -1.640356,0.584872 -2.868898,0.584872 -1.096826,0 -1.599577,-0.118669 -2.190847,-0.517126 z"
     id="path4" />
  <path
     style="fill:#fbfdfe;fill-opacity:1;stroke:#e6e6e6;stroke-width:0.229487"
     d="m 95.694668,28.943282 c -1.92223,-0.627591 -3.473238,-2.178008 -4.01971,-4.018179 -1.270702,-4.278918 1.618601,-8.213037 6.031832,-8.213037 3.5725,0 6.02142,2.274783 6.02142,5.593249 v 1.331864 h -4.704492 c -3.080933,0 -4.704487,0.08174 -4.704487,0.236859 0,0.668742 0.749421,1.872481 1.420485,2.281618 1.006465,0.613624 3.41143,0.632563 4.973134,0.03916 l 1.12034,-0.425694 0.48853,1.005551 c 0.2687,0.553054 0.48854,1.041707 0.48854,1.085896 0,0.04419 -0.54217,0.318019 -1.20481,0.608509 -1.29286,0.566763 -4.772298,0.845907 -5.910782,0.474202 z m 4.820712,-7.727114 c 0,-0.64455 -0.64369,-1.615688 -1.255763,-1.894567 -0.843415,-0.384286 -2.538495,-0.341294 -3.363451,0.08531 -0.565168,0.29226 -1.347448,1.478219 -1.347448,2.042771 0,0.06716 1.3425,0.122115 2.983333,0.122115 2.541349,0 2.983329,-0.05269 2.983329,-0.355627 z"
     id="path5" />
  <path
     style="fill:#fbfdfe;fill-opacity:1;stroke:#e6e6e6;stroke-width:0.229487"
     d="m 106.02308,22.948718 v -5.966667 h 1.60641 1.60641 v 0.708862 0.708861 l 0.73289,-0.616692 c 1.00009,-0.841513 1.68023,-1.065984 3.21131,-1.059836 1.36687,0.0055 2.73533,0.534042 3.42909,1.32445 1.02258,1.165048 1.11773,1.70827 1.11773,6.381292 v 4.486397 h -1.60641 -1.60641 v -3.897662 -3.897661 l -0.64914,-0.726519 c -0.53801,-0.602136 -0.8267,-0.730444 -1.68624,-0.749453 -0.57041,-0.01262 -1.3198,0.128316 -1.66531,0.313179 -1.12145,0.600019 -1.27751,1.244417 -1.27751,5.274924 v 3.683192 h -1.60641 -1.60641 z"
     id="path6" />
  <path
     style="fill:#fbfdfe;fill-opacity:1;stroke:#e6e6e6;stroke-width:0.229487"
     d="m 121.86555,28.677285 c -1.85498,-0.667019 -1.97592,-0.854516 -1.36379,-2.114454 l 0.50811,-1.045838 0.84739,0.441689 c 2.24745,1.171434 5.10681,1.082112 5.42091,-0.169342 0.21508,-0.856977 -0.23612,-1.166231 -2.51355,-1.722759 -3.07618,-0.751715 -4.36035,-1.846289 -4.36035,-3.716578 0,-1.311164 0.69086,-2.421374 1.95843,-3.147206 0.83584,-0.478614 1.28484,-0.564976 2.9373,-0.564976 1.33,0 2.29172,0.131621 3.02263,0.413679 1.49918,0.578532 1.63694,0.80623 1.18457,1.957857 -0.20655,0.525815 -0.45187,0.956028 -0.54516,0.956028 -0.0933,0 -0.61978,-0.204271 -1.16999,-0.453935 -1.34593,-0.610731 -3.643,-0.635112 -4.17764,-0.04434 -0.89052,0.984017 -0.27425,1.592028 2.22985,2.199965 3.14432,0.763366 4.27497,1.725487 4.27497,3.637749 0,1.548534 -0.62353,2.504845 -2.11916,3.250146 -1.52579,0.760334 -4.21127,0.813879 -6.13452,0.122315 z"
     id="path7" />
  <path
     style="fill:#fbfdfe;fill-opacity:1;stroke:#e6e6e6;stroke-width:0.229487"
     d="m 132.64359,22.948718 v -5.966667 h 1.60641 1.60641 v 5.966667 5.966667 H 134.25 132.64359 Z"
     id="path8" />
  <path
     style="fill:#fbfdfe;fill-opacity:1;stroke:#e6e6e6;stroke-width:0.229487"
     d="m 142.141,28.773754 c -3.33533,-1.18288 -4.98846,-5.337108 -3.39574,-8.53328 2.47258,-4.961837 10.08829,-4.603064 12.02242,0.566372 0.58524,1.564197 0.58729,2.714075 0.008,4.263457 -0.54065,1.445029 -1.96082,2.928626 -3.4445,3.598343 -1.24359,0.561343 -3.75966,0.612301 -5.18977,0.105108 z m 4.64248,-3.085606 c 1.26819,-1.16962 1.55586,-2.851222 0.76663,-4.481538 -0.54712,-1.130211 -1.54009,-1.7002 -2.96189,-1.7002 -2.00364,0 -3.22177,1.283538 -3.22326,3.396332 -0.002,2.367214 1.22908,3.574543 3.49568,3.42915 1.00066,-0.06419 1.46186,-0.218592 1.92284,-0.643744 z"
     id="path9" />
  <path
     style="fill:#fbfdfe;fill-opacity:1;stroke:#e6e6e6;stroke-width:0.229487"
     d="m 133.19029,14.488434 c -0.85218,-0.531275 -1.13473,-1.42014 -0.7239,-2.277312 0.62816,-1.310615 2.47901,-1.498565 3.38722,-0.343964 0.60274,0.766249 0.58463,1.507385 -0.0546,2.233752 -0.70416,0.800189 -1.7077,0.949262 -2.60875,0.387524 z"
     id="path10" />
  <path
     style="fill:#fbfdfe;fill-opacity:1;stroke:#e6e6e6;stroke-width:0.229487"
     d="m 153.29744,22.948718 v -5.966667 h 1.72115 1.72115 v 0.731397 0.731396 l 0.63109,-0.588612 c 0.98188,-0.915793 1.59343,-1.141115 3.07786,-1.134015 2.29909,0.011 3.83689,1.030012 4.51304,2.990553 0.16761,0.485989 0.26904,2.367729 0.26904,4.991347 v 4.211268 h -1.60641 -1.60641 l -3.6e-4,-3.614423 c -2.9e-4,-2.981339 -0.0706,-3.755109 -0.4016,-4.417629 -0.77448,-1.55034 -3.28934,-1.726044 -4.40496,-0.307759 -0.43308,0.550568 -0.47129,0.91293 -0.47129,4.469477 v 3.870334 h -1.72115 -1.72115 z"
     id="path11" />
  <path
     style="fill:#fbfdfe;fill-opacity:1;stroke:#e6e6e6;stroke-width:0.229487"
     d="m 169.70577,28.823859 c -0.50487,-0.159669 -1.25416,-0.465526 -1.66509,-0.679681 l -0.74715,-0.389372 0.4885,-0.968749 c 0.26867,-0.532812 0.52429,-1.008636 0.56804,-1.057385 0.0438,-0.04875 0.62486,0.14939 1.29134,0.440311 0.83579,0.364821 1.68145,0.534739 2.7254,0.547611 1.72226,0.02124 2.27293,-0.280101 2.27293,-1.243775 0,-0.72108 -0.34763,-0.909609 -2.76918,-1.501789 -3.0021,-0.734151 -4.24403,-1.956412 -4.03844,-3.974489 0.13525,-1.327722 0.72018,-2.078874 2.21338,-2.842374 0.91516,-0.467942 1.56879,-0.63109 2.52836,-0.63109 1.37746,0 3.41615,0.510047 4.26698,1.067532 l 0.51552,0.337781 -0.45492,1.094656 -0.45492,1.094657 -1.05703,-0.535134 c -0.75158,-0.380501 -1.44802,-0.535133 -2.41014,-0.535133 -1.70241,0 -2.24089,0.273104 -2.24089,1.13653 0,0.730409 0.27974,0.873035 3.58894,1.829825 1.00607,0.290886 1.90696,0.724648 2.33448,1.124012 1.85131,1.729389 0.73458,5.015911 -1.95849,5.763783 -1.16289,0.322936 -3.86355,0.280934 -4.99762,-0.07773 z"
     id="path12" />
  <path
     style="fill:#fbfdfe;fill-opacity:1;stroke:#e6e6e6;stroke-width:0.229487"
     d="m 67.618729,28.628526 c 0.09712,-0.157773 0.961442,-1.371186 1.920712,-2.696475 0.959269,-1.325288 1.819472,-2.535553 1.911561,-2.689477 0.09965,-0.166559 -0.562706,-1.374365 -1.636049,-2.983333 -0.991916,-1.48691 -1.879948,-2.832558 -1.973403,-2.990331 -0.130701,-0.22065 0.296669,-0.286754 1.851637,-0.286404 l 2.021557,4.54e-4 1.032692,1.830001 c 0.567981,1.0065 1.103114,1.832449 1.189185,1.835442 0.08607,0.003 0.602418,-0.820609 1.147436,-1.830228 l 0.990943,-1.835672 2.008984,-2.26e-4 2.008984,-2.26e-4 -1.976749,2.96743 -1.976748,2.967429 1.937031,2.712378 c 1.065367,1.491808 2.012196,2.841465 2.104065,2.999238 0.128408,0.220524 -0.305967,0.286859 -1.878432,0.286859 h -2.045466 l -1.123527,-1.829217 c -0.61794,-1.006069 -1.197313,-1.832223 -1.287496,-1.835898 -0.09018,-0.0037 -0.693926,0.819474 -1.341649,1.829217 l -1.177679,1.835898 h -1.942087 c -1.494857,0 -1.901423,-0.06606 -1.765502,-0.286859 z"
     id="path13" />
  <path
     style="fill:#fbfdfe;fill-opacity:1;stroke:#e6e6e6;stroke-width:0.229487"
     d="m 54.388462,20.653846 v -8.261538 h 5.622435 5.622436 v 1.376923 1.376923 h -3.901282 -3.901282 v 1.950641 1.950641 h 3.327564 3.327564 v 1.262179 1.26218 h -3.327564 -3.327564 v 2.180128 2.180128 h 4.016026 4.016026 v 1.491667 1.491667 h -5.73718 -5.737179 z"
     id="path14" />
</svg>
